<?xml version="1.0" standalone="no"?>
<!DOCTYPE svg PUBLIC "-//W3C//DTD SVG 20010904//EN"
 "http://www.w3.org/TR/2001/REC-SVG-20010904/DTD/svg10.dtd">
<svg version="1.0" xmlns="http://www.w3.org/2000/svg"
 width="688.000000pt" height="688.000000pt" viewBox="0 0 688.000000 688.000000"
 preserveAspectRatio="xMidYMid meet">
<metadata>
Created by potrace 1.14, written by Peter Selinger 2001-2017
</metadata>
<g transform="translate(0.000000,688.000000) scale(0.100000,-0.100000)"
fill="#000000" stroke="none">
<path d="M4590 6614 c-6 -14 -10 -27 -10 -28 0 -2 -8 -21 -17 -42 -9 -22 -18
-43 -19 -49 -2 -9 -28 -74 -67 -165 -6 -14 -11 -27 -12 -30 -1 -3 -8 -19 -14
-37 l-12 -32 -67 26 c-37 14 -71 26 -77 28 -5 1 -17 5 -25 8 -8 3 -31 10 -50
16 -19 5 -66 18 -105 29 -83 24 -288 67 -365 77 -30 4 -62 9 -70 10 -141 26
-560 26 -765 0 -87 -11 -275 -47 -370 -71 -125 -32 -343 -102 -349 -113 -6 -9
18 -83 52 -161 40 -95 41 -94 -41 -125 -72 -28 -338 -154 -347 -165 -3 -3 -37
-24 -75 -47 -61 -36 -237 -157 -272 -187 -7 -6 -18 -15 -25 -21 -212 -161
-522 -520 -644 -745 -10 -19 -22 -37 -25 -40 -3 -3 -30 -54 -60 -115 -30 -60
-55 -112 -56 -114 -1 -2 -55 20 -120 49 -155 68 -151 67 -159 36 -3 -14 -11
-26 -17 -26 -6 0 -7 -3 -4 -6 3 -4 2 -16 -4 -26 -18 -34 -106 -281 -115 -323
-1 -5 -9 -35 -18 -65 -8 -30 -17 -66 -20 -80 -2 -14 -9 -43 -14 -65 -6 -22
-14 -56 -17 -75 -8 -48 -14 -81 -19 -106 -2 -12 -7 -45 -10 -75 -4 -30 -9 -74
-12 -99 -3 -25 -7 -78 -9 -118 -2 -39 -6 -76 -10 -81 -3 -5 -1 -12 5 -16 6 -4
7 -11 4 -17 -8 -12 -11 -178 -4 -178 3 0 5 -33 6 -73 1 -154 40 -415 90 -606
40 -154 44 -163 63 -156 9 4 23 8 31 10 8 2 44 13 80 25 36 12 70 23 75 24 18
4 59 17 80 26 11 4 67 22 125 40 58 17 115 35 128 41 16 6 24 5 27 -4 2 -6 10
-32 18 -57 50 -151 157 -374 251 -520 30 -47 59 -90 65 -97 6 -7 11 -15 11
-17 0 -3 6 -14 14 -23 8 -10 45 -55 81 -101 76 -95 221 -243 315 -322 36 -30
67 -57 70 -60 22 -23 158 -116 247 -171 91 -56 291 -159 309 -159 8 0 14 -4
14 -10 0 -5 3 -9 8 -8 4 1 20 -4 35 -10 16 -7 34 -12 41 -12 6 0 16 -4 22 -8
7 -7 143 -54 164 -57 3 -1 31 -9 63 -18 52 -16 56 -19 47 -37 -6 -11 -8 -20
-4 -20 3 0 2 -6 -4 -12 -6 -7 -10 -16 -10 -21 -1 -16 -15 -75 -33 -136 -10
-34 -21 -73 -23 -85 -7 -29 -12 -52 -30 -118 -46 -169 -50 -159 69 -185 55
-13 114 -25 130 -28 17 -2 41 -7 55 -10 14 -2 45 -7 70 -10 25 -3 63 -8 85
-11 119 -14 478 -26 498 -16 5 2 39 5 77 7 37 2 86 6 108 10 21 3 57 8 78 10
21 2 50 7 64 10 13 2 42 7 65 10 22 4 56 10 75 15 19 5 46 11 60 14 37 6 147
35 173 45 12 5 49 17 82 27 118 34 441 171 480 204 12 10 6 28 -37 113 -29 56
-62 119 -75 140 -13 20 -20 37 -17 37 4 0 2 6 -4 13 -13 15 -72 127 -72 136 0
3 34 26 75 51 41 25 75 48 75 53 0 4 5 7 11 7 8 0 41 22 114 77 19 15 110 88
140 113 43 36 233 227 279 280 70 81 183 237 240 332 31 51 61 100 66 108 17
28 122 245 124 257 1 7 5 15 8 18 5 5 124 -44 352 -146 49 -22 92 -36 96 -32
21 22 123 374 144 493 3 19 8 46 11 60 3 13 7 42 10 65 3 22 8 51 10 65 8 43
16 141 20 239 2 51 6 95 8 98 3 2 1 20 -3 39 -5 19 -4 37 1 40 5 3 7 10 3 15
-3 5 -7 51 -10 102 -6 141 -19 271 -29 307 -3 8 -7 33 -10 55 -3 22 -11 62
-16 88 -12 53 -10 58 23 63 13 1 60 10 105 18 45 8 101 18 125 21 24 4 48 8
53 9 6 1 67 13 138 26 70 13 127 28 127 34 0 6 -4 27 -10 46 -5 19 -11 46 -14
60 -20 115 -99 371 -168 545 -41 103 -177 386 -224 465 -15 25 -32 54 -38 65
-16 29 -167 256 -185 278 -9 11 -22 25 -28 32 -7 8 -13 18 -13 23 0 6 -3 12
-7 14 -5 2 -39 41 -78 88 -85 103 -163 187 -274 294 -137 131 -153 145 -203
183 -26 21 -48 41 -48 45 0 4 -4 8 -10 8 -10 0 -37 20 -72 53 -10 9 -21 17
-24 17 -4 0 -55 36 -89 63 -30 24 -217 141 -300 187 -48 27 -238 124 -245 125
-3 1 -27 12 -55 24 -88 42 -105 44 -115 15z m-1145 -1218 c140 -20 179 -27
255 -47 195 -51 401 -133 539 -214 52 -31 191 -124 207 -139 7 -6 31 -27 55
-46 111 -89 208 -188 333 -340 49 -60 164 -246 209 -340 29 -58 52 -107 53
-110 0 -3 6 -18 13 -35 19 -49 48 -132 52 -153 1 -4 6 -18 11 -32 6 -14 12
-34 14 -45 2 -11 10 -47 19 -80 53 -207 69 -501 39 -720 -25 -181 -79 -399
-120 -477 -8 -15 -15 -30 -15 -33 -2 -36 -122 -272 -194 -380 -127 -191 -291
-368 -459 -496 -50 -38 -95 -73 -101 -77 -16 -12 -107 -66 -140 -82 -16 -8
-33 -19 -37 -25 -4 -5 -8 -6 -8 -2 0 4 -26 -7 -57 -24 -32 -18 -59 -32 -60
-31 -2 1 -23 -7 -47 -17 -42 -18 -224 -79 -256 -86 -8 -2 -44 -10 -80 -18 -72
-17 -127 -27 -180 -32 -19 -2 -60 -6 -90 -10 -67 -7 -254 -8 -330 -1 -131 11
-217 23 -230 31 -4 2 -33 7 -64 9 -31 3 -83 13 -114 23 -31 9 -60 18 -64 19
-5 1 -10 3 -13 4 -3 1 -8 3 -12 5 -70 19 -365 154 -383 174 -7 8 -36 26 -81
50 -19 11 -41 27 -48 35 -8 9 -20 16 -27 16 -8 0 -14 4 -14 9 0 4 -18 20 -39
34 -89 59 -264 232 -361 357 -19 25 -38 47 -42 48 -5 2 -8 10 -8 18 0 8 -4 14
-8 14 -5 0 -14 10 -21 23 -14 26 -27 47 -65 107 -62 95 -167 326 -197 432 -7
24 -14 48 -15 53 -24 80 -46 167 -50 195 -2 19 -7 46 -10 60 -16 84 -26 224
-24 350 1 153 8 222 42 398 12 61 25 112 30 112 5 0 7 4 4 9 -8 12 60 213 105
309 21 45 39 85 38 88 0 4 3 10 8 13 4 3 21 31 37 61 28 52 165 260 190 286 6
6 33 38 61 70 76 87 177 184 260 250 28 21 52 41 55 44 3 3 12 10 21 15 9 6
50 33 91 60 41 28 115 70 164 95 49 25 92 49 95 53 3 5 9 8 13 7 4 -2 35 9 69
23 155 62 380 117 547 132 35 3 66 7 67 9 6 5 323 -2 368 -8z"/>
<path d="M3190 4472 c-36 -18 -56 -49 -114 -182 -16 -36 -42 -92 -57 -125 -37
-81 -141 -328 -143 -340 -1 -5 -5 -15 -9 -21 -4 -7 -40 -97 -80 -200 -41 -104
-78 -198 -82 -209 -5 -11 -9 -22 -10 -25 -1 -3 -5 -14 -10 -25 -42 -107 -77
-200 -87 -234 -7 -23 -16 -41 -20 -41 -5 0 -8 -6 -8 -12 0 -11 -116 -353 -140
-413 -25 -61 -37 -103 -36 -125 4 -111 145 -170 220 -91 24 25 59 102 71 156
8 35 85 259 95 277 6 10 10 24 10 33 0 8 7 29 16 48 l16 34 423 -1 c233 -1
426 -4 429 -7 4 -3 38 -98 76 -210 39 -112 78 -224 86 -247 39 -110 141 -151
227 -92 80 55 77 133 -11 330 -8 19 -23 55 -33 80 -93 244 -137 361 -171 450
-42 110 -201 514 -222 565 -7 17 -23 55 -36 85 -72 172 -80 191 -163 370 -17
36 -31 67 -32 70 -34 103 -119 145 -205 102z m128 -547 c16 -38 44 -108 62
-155 18 -47 41 -104 51 -127 11 -24 19 -46 19 -50 0 -7 30 -88 51 -138 5 -11
18 -47 29 -80 12 -33 25 -69 30 -80 23 -57 31 -85 27 -92 -5 -8 -673 -11 -681
-2 -4 3 98 296 124 354 4 11 29 74 53 140 25 66 55 141 66 168 11 26 20 48 20
50 -1 4 19 54 39 100 11 23 22 51 27 62 8 22 20 0 83 -150z"/>
</g>
</svg>
