<svg width="270" height="64" viewBox="0 0 270 64" fill="none" xmlns="http://www.w3.org/2000/svg">
<g clip-path="url(#clip0_410_427)">
<path fill-rule="evenodd" clip-rule="evenodd" d="M102.68 28.7787C101.875 26.7493 101.078 24.8162 100.29 22.9792C99.5023 21.1423 98.6923 19.3491 97.8601 17.5996H93.531C92.69 19.3491 91.8755 21.1598 91.0876 23.0317C90.2997 24.9036 89.503 26.8368 88.6974 28.8312C87.8917 30.8606 87.0684 33.008 86.2274 35.2736C85.3864 37.5392 84.5011 40.0147 83.5715 42.7001H88.2857L89.3082 39.7872C89.6535 38.8075 89.9987 37.8103 90.344 36.7956H100.888C101.224 37.8103 101.574 38.7988 101.937 39.761C102.3 40.7232 102.65 41.7029 102.986 42.7001H107.886C106.948 40.0234 106.062 37.5479 105.23 35.2736C104.398 32.9993 103.548 30.8343 102.68 28.7787ZM91.4727 33.0562C92.2429 30.9043 92.9822 28.9099 93.6904 27.073C94.3986 25.236 95.0272 23.679 95.5761 22.4019C96.1072 23.6353 96.7313 25.1792 97.4484 27.0336C98.1655 28.888 98.9092 30.8912 99.6794 33.043L91.4727 33.0562ZM122.599 31.1011H115.508V23.714H111.153V42.6607H115.508V34.7881H122.599V42.6607H126.955V23.714H122.599V31.1011ZM145.998 37.163C145.219 36.2358 144.426 35.3611 143.621 34.5388C142.884 33.7703 142.108 33.039 141.297 32.3476L143.222 30.3795L145.387 28.0964L147.512 25.8002C148.193 25.048 148.8 24.3613 149.331 23.7402H144.218C143.838 24.1951 143.36 24.7462 142.784 25.3935L140.965 27.401L139.039 29.4085C138.393 30.0996 137.791 30.7206 137.233 31.2717V23.6615H132.878V42.6607H137.207V34.1452C137.917 34.6833 138.591 35.2662 139.225 35.8903C139.925 36.5638 140.611 37.2811 141.284 38.0421C141.956 38.8032 142.598 39.5817 143.209 40.3777C143.82 41.1737 144.355 41.9347 144.816 42.6607H149.862C149.346 41.7578 148.783 40.8819 148.175 40.0365C147.512 39.0743 146.786 38.1209 145.998 37.1761V37.163ZM160.286 23.2416C159.175 23.2423 158.075 23.4562 157.046 23.8715C155.983 24.2975 155.024 24.9415 154.231 25.7609C153.368 26.6641 152.699 27.7309 152.266 28.8968C151.746 30.2997 151.494 31.7856 151.522 33.2792C151.506 34.6126 151.698 35.9404 152.093 37.2155C152.452 38.3639 153.054 39.4239 153.859 40.3252C154.694 41.2338 155.73 41.939 156.887 42.3852C158.267 42.91 159.737 43.1641 161.216 43.1331C161.855 43.135 162.493 43.1 163.128 43.0281C163.757 42.9581 164.341 42.8663 164.881 42.7526C165.365 42.6557 165.844 42.533 166.315 42.3852C166.657 42.2842 166.99 42.157 167.311 42.0047L166.74 38.4226C166.07 38.6906 165.377 38.897 164.668 39.0393C163.717 39.24 162.746 39.3368 161.774 39.328C160.28 39.4134 158.807 38.9456 157.644 38.0159C157.153 37.5617 156.758 37.0159 156.483 36.4101C156.207 35.8042 156.055 35.1504 156.037 34.4863H168.466C168.466 34.2414 168.466 33.9702 168.466 33.6728C168.466 33.3754 168.466 33.1043 168.466 32.8593C168.663 30.263 167.888 27.6857 166.288 25.6165C165.523 24.8138 164.589 24.1855 163.552 23.7754C162.516 23.3653 161.401 23.1831 160.286 23.2416ZM156.077 31.3242C156.15 30.7692 156.283 30.2237 156.475 29.6972C156.657 29.1808 156.932 28.7009 157.285 28.2801C157.652 27.8588 158.104 27.519 158.613 27.2829C159.163 27.0189 159.768 26.8885 160.379 26.9024C160.956 26.8867 161.529 27.0035 162.052 27.2435C162.516 27.4676 162.924 27.7902 163.248 28.1883C163.585 28.6089 163.838 29.0901 163.991 29.6053C164.161 30.1627 164.246 30.742 164.243 31.3242H156.077ZM171.202 27.3879H177.257V42.6607H181.613V27.3748H187.668V23.714H171.202V27.3879ZM205.821 25.9708C205.026 25.1013 204.047 24.4158 202.953 23.9633C201.797 23.4842 200.554 23.2431 199.301 23.2548C198.052 23.2412 196.813 23.4824 195.662 23.9633C194.572 24.4217 193.594 25.1064 192.794 25.9708C191.964 26.8822 191.328 27.9484 190.922 29.1067C190.462 30.4186 190.238 31.7994 190.258 33.1874C190.239 34.5795 190.464 35.9644 190.922 37.2811C191.325 38.4415 191.957 39.5117 192.781 40.4302C193.577 41.2925 194.55 41.9769 195.636 42.4377C196.797 42.9314 198.05 43.1773 199.314 43.1593C200.582 43.1753 201.84 42.9295 203.006 42.4377C204.099 41.9719 205.078 41.2782 205.874 40.4039C206.693 39.4867 207.316 38.4157 207.707 37.2549C208.154 35.9359 208.374 34.5521 208.357 33.1611C208.377 31.7732 208.153 30.3924 207.693 29.0805C207.277 27.9279 206.637 26.8669 205.808 25.9577L205.821 25.9708ZM202.674 37.7141C202.282 38.2302 201.773 38.649 201.189 38.9375C200.605 39.2259 199.961 39.3761 199.308 39.3761C198.654 39.3761 198.01 39.2259 197.426 38.9375C196.842 38.649 196.333 38.2302 195.941 37.7141C195.069 36.3674 194.646 34.7841 194.733 33.1874C194.647 31.6073 195.07 30.041 195.941 28.7131C196.337 28.2017 196.846 27.7872 197.43 27.502C198.014 27.2167 198.656 27.0683 199.308 27.0683C199.959 27.0683 200.601 27.2167 201.185 27.502C201.769 27.7872 202.278 28.2017 202.674 28.7131C203.545 30.041 203.968 31.6073 203.882 33.1874C203.961 34.781 203.534 36.3592 202.661 37.701L202.674 37.7141ZM216.418 26.0889C216.418 26.9636 216.418 27.8384 216.418 28.7131C216.418 29.5878 216.365 30.4888 216.259 31.416C216.17 32.2908 216.051 33.1305 215.9 33.9353C215.764 34.6713 215.541 35.3891 215.236 36.074C214.903 36.8867 214.369 37.604 213.682 38.1602C212.846 38.7754 211.871 39.1806 210.841 39.3411L211.452 43.0019C212.752 42.9029 214.021 42.5506 215.183 41.9653C216.14 41.4417 216.987 40.7425 217.68 39.9053C218.358 39.1242 218.901 38.2374 219.286 37.2811C219.676 36.2489 219.961 35.1808 220.136 34.0927C220.318 32.9719 220.433 31.8416 220.481 30.7075C220.526 29.5616 220.561 28.4551 220.588 27.3879H225.382V42.6607H229.737V23.714H216.458L216.418 26.0889ZM250.174 25.9839C249.379 25.1144 248.4 24.429 247.306 23.9764C246.15 23.4973 244.907 23.2562 243.654 23.2679C242.405 23.2543 241.166 23.4955 240.015 23.9764C238.925 24.4349 237.947 25.1195 237.147 25.9839C236.317 26.8953 235.681 27.9616 235.275 29.1199C234.815 30.4317 234.591 31.8125 234.611 33.2005C234.592 34.5926 234.817 35.9775 235.275 37.2942C235.678 38.4547 236.31 39.5248 237.134 40.4433C237.923 41.3136 238.892 42.007 239.976 42.477C241.137 42.9708 242.39 43.2167 243.654 43.1987C244.922 43.2146 246.179 42.9688 247.346 42.477C248.439 42.0113 249.417 41.3175 250.214 40.4433C251.033 39.5261 251.656 38.455 252.046 37.2942C252.494 35.9753 252.714 34.5914 252.697 33.2005C252.717 31.8125 252.492 30.4317 252.033 29.1199C251.622 27.9533 250.981 26.8786 250.147 25.9577L250.174 25.9839ZM247.027 37.7272C246.635 38.2433 246.126 38.6621 245.542 38.9506C244.958 39.2391 244.314 39.3892 243.661 39.3892C243.007 39.3892 242.363 39.2391 241.779 38.9506C241.195 38.6621 240.686 38.2433 240.294 37.7272C239.422 36.3805 238.999 34.7972 239.086 33.2005C239 31.6204 239.423 30.0541 240.294 28.7262C240.69 28.2148 241.199 27.8004 241.783 27.5151C242.367 27.2298 243.009 27.0814 243.661 27.0814C244.312 27.0814 244.954 27.2298 245.538 27.5151C246.122 27.8004 246.631 28.2148 247.027 28.7262C247.898 30.0541 248.321 31.6204 248.235 33.2005C248.308 34.7911 247.876 36.3644 247 37.701L247.027 37.7272ZM257.557 23.7402V42.6607H261.913V27.3354H270V23.714L257.557 23.7402Z" fill="#34495E"/>
<path fill-rule="evenodd" clip-rule="evenodd" d="M25.3444 57.3714L26.4111 53.0726C22.6887 52.2468 19.2698 50.4144 16.5335 47.7786C13.7973 45.1429 11.8508 41.8068 10.91 38.1406L6.67017 39.2388C7.80112 43.6718 10.1426 47.7098 13.4371 50.9088C16.7316 54.1078 20.8517 56.3439 25.3444 57.3714Z" fill="#B0D7E6"/>
<path fill-rule="evenodd" clip-rule="evenodd" d="M49.9734 39.9482C48.29 44.6698 44.9298 48.6213 40.5215 51.0635L43.1275 56.2998C48.8394 53.1876 53.2053 48.1096 55.4015 42.024L49.9734 39.9482Z" fill="#60A9C5"/>
<path fill-rule="evenodd" clip-rule="evenodd" d="M45.8282 60.4251L40.7916 50.8633C36.3298 53.3146 31.1105 54.0397 26.1412 52.8989L23.4407 62.9964C30.959 65.0247 38.9762 64.1039 45.8282 60.4251Z" fill="#8FC4D9"/>
<path fill-rule="evenodd" clip-rule="evenodd" d="M51.2291 32.9039C51.2314 35.6038 50.704 38.2783 49.6763 40.7784L59.4522 45.0236C61.6323 39.427 62.0605 33.3085 60.681 27.4668L50.9455 29.2613C51.1467 30.465 51.2416 31.6838 51.2291 32.9039Z" fill="#318EB4"/>
<path fill-rule="evenodd" clip-rule="evenodd" d="M10.2214 32.9044C10.2239 29.9029 10.8827 26.9376 12.1523 24.213L2.76795 20.0615C-0.402494 27.0647 -0.882712 34.9757 1.41768 42.3055L11.1936 39.212C10.5456 37.1713 10.2177 35.0439 10.2214 32.9044Z" fill="#8FC4D9"/>
<path fill-rule="evenodd" clip-rule="evenodd" d="M5.3877 21.3201L12.139 24.2931C13.3519 21.6204 15.1297 19.2375 17.3523 17.3059C19.5748 15.3743 22.19 13.939 25.0206 13.0974L22.7522 6.08008C18.9276 7.24161 15.3986 9.203 12.4031 11.832C9.40769 14.4609 7.01543 17.6964 5.3877 21.3201Z" fill="#60A9C5"/>
<path fill-rule="evenodd" clip-rule="evenodd" d="M20.3486 3.99094L23.9809 13.4858C26.4786 12.5983 29.1294 12.2123 31.779 12.3502C34.4286 12.4882 37.0241 13.1473 39.4144 14.2893L43.6678 4.36591C36.239 1.24103 27.8756 1.10655 20.3486 3.99094Z" fill="#318EB4"/>
<path fill-rule="evenodd" clip-rule="evenodd" d="M44.6263 -0.0263672L38.9822 14.0352C42.0962 15.4294 44.8151 17.5646 46.8973 20.2512C48.9796 22.9378 50.3609 26.0927 50.9186 29.4359L66.6087 26.6771C65.4871 20.7585 62.8874 15.2131 59.0472 10.5482C55.207 5.88325 50.2489 2.24758 44.6263 -0.0263672V-0.0263672Z" fill="#0C74A4"/>
<path fill-rule="evenodd" clip-rule="evenodd" d="M39.6709 40.3905C38.9553 38.4085 38.5502 37.6318 37.9156 35.9176C37.281 34.2035 36.6463 32.5429 36.0387 30.9894C35.4311 29.436 34.81 27.9494 34.2158 26.5299C33.6217 25.1104 32.9736 23.7176 32.3255 22.3248C32.2242 22.0803 32.0521 21.8709 31.8311 21.7232C31.61 21.5754 31.3498 21.4959 31.0832 21.4945C30.7711 21.487 30.466 21.5869 30.2198 21.7774C29.9736 21.9678 29.8015 22.237 29.7329 22.5391C29.1118 23.8604 28.5132 25.1996 27.9371 26.5567C27.361 27.9137 26.7533 29.4002 26.1142 31.0162C25.5201 32.5518 24.89 34.1856 24.2238 35.9176C23.5892 37.6452 23.2922 38.596 22.5765 40.5646C22.4822 40.7472 22.4313 40.9488 22.428 41.1539C22.428 41.5091 22.5702 41.8497 22.8235 42.1008C23.0767 42.352 23.4201 42.4931 23.7782 42.4931C24.031 42.485 24.2765 42.4066 24.4865 42.2669C24.6966 42.1272 24.8629 41.9318 24.9665 41.7029L26.6813 36.6274H35.3096L36.1602 39.0915C36.4303 39.895 36.7273 40.7521 37.0379 41.5824C37.1447 41.8501 37.331 42.0793 37.5722 42.2396C37.8133 42.3998 38.0979 42.4836 38.3882 42.4797C38.7726 42.4726 39.1386 42.3153 39.4067 42.0419C39.6747 41.7686 39.8231 41.4013 39.8195 41.02C39.8175 40.8018 39.7668 40.5869 39.6709 40.3905ZM27.5185 34.4311C28.0856 32.8241 28.6572 31.2662 29.2333 29.7574C29.8095 28.2485 30.3901 26.8022 30.9752 25.4184C31.5963 26.8111 32.1949 28.2619 32.771 29.7707C33.3472 31.2796 33.9278 32.8375 34.5129 34.4445L27.5185 34.4311Z" fill="#EF4744"/>
</g>
<defs>
<clipPath id="clip0_410_427">
<rect width="270" height="64" fill="white"/>
</clipPath>
</defs>
</svg>
